# Blender v2.78 (sub 0) OBJ File: ''
# www.blender.org
mtllib double-cube.mtl
o Cube
v -1.480283 -0.585411 2.094633
v -1.480283 1.414589 2.094633
v -1.480283 -0.585411 0.094633
v -1.480283 1.414589 0.094633
v 0.519717 -0.585411 2.094633
v 0.519717 1.414589 2.094633
v 0.519717 -0.585411 0.094633
v 0.519717 1.414589 0.094633
v 1.448641 -1.682019 -1.000000
v 1.448641 -1.682019 1.000000
v -0.551360 -1.682019 1.000000
v -0.551359 -1.682019 -1.000000
v 1.448641 0.317981 -0.999999
v 1.448640 0.317981 1.000001
v -0.551360 0.317981 1.000000
v -0.551359 0.317981 -1.000000
vn -1.0000 0.0000 0.0000
vn 0.0000 0.0000 -1.0000
vn 1.0000 0.0000 0.0000
vn 0.0000 0.0000 1.0000
vn 0.0000 -1.0000 0.0000
vn 0.0000 1.0000 0.0000
usemtl Material
s off
f 2//1 3//1 1//1
f 4//2 7//2 3//2
f 8//3 5//3 7//3
f 6//4 1//4 5//4
f 7//5 1//5 3//5
f 4//6 6//6 8//6
f 10//5 12//5 9//5
f 16//6 14//6 13//6
f 13//3 10//3 9//3
f 14//4 11//4 10//4
f 15//1 12//1 11//1
f 9//2 16//2 13//2
f 2//1 4//1 3//1
f 4//2 8//2 7//2
f 8//3 6//3 5//3
f 6//4 2//4 1//4
f 7//5 5//5 1//5
f 4//6 2//6 6//6
f 10//5 11//5 12//5
f 16//6 15//6 14//6
f 13//3 14//3 10//3
f 14//4 15//4 11//4
f 15//1 16//1 12//1
f 9//2 12//2 16//2
